<?xml version="1.0" encoding="utf-8"?>
<!-- Generator: Adobe Illustrator 24.3.0, SVG Export Plug-In . SVG Version: 6.00 Build 0)  -->
<svg version="1.1" id="Layer_1" xmlns="http://www.w3.org/2000/svg" xmlns:xlink="http://www.w3.org/1999/xlink" x="0px" y="0px"
	 viewBox="0 0 824 547" style="enable-background:new 0 0 824 547;" xml:space="preserve">
<style type="text/css">
	.st0{fill-rule:evenodd;clip-rule:evenodd;fill:url(#SVGID_1_);}
	.st1{fill-rule:evenodd;clip-rule:evenodd;fill:#00B957;}
	.st2{fill-rule:evenodd;clip-rule:evenodd;fill:url(#SVGID_2_);}
	.st3{fill-rule:evenodd;clip-rule:evenodd;fill:url(#SVGID_3_);}
	.st4{fill:url(#SVGID_4_);}
	.st5{fill-rule:evenodd;clip-rule:evenodd;fill:url(#SVGID_5_);}
</style>
<g>
	<linearGradient id="SVGID_1_" gradientUnits="userSpaceOnUse" x1="93.4983" y1="218.7052" x2="458.7971" y2="218.7052">
		<stop  offset="0" style="stop-color:#00EF64"/>
		<stop  offset="1" style="stop-color:#00B957"/>
	</linearGradient>
	<path class="st0" d="M93.5,165.2h272.3c51.2,0,93,41.6,93,92.5v14.6H254C153.5,272.2,93.5,259.3,93.5,165.2L93.5,165.2z"/>
	<path class="st1" d="M223.2,304.8h107l-1.3,227.7c-94-0.4-106.7-52.2-106.3-139.1L223.2,304.8z"/>
	<linearGradient id="SVGID_2_" gradientUnits="userSpaceOnUse" x1="66.2537" y1="218.7052" x2="431.5525" y2="218.7052">
		<stop  offset="0" style="stop-color:#00B957"/>
		<stop  offset="1" style="stop-color:#00EF64"/>
	</linearGradient>
	<path class="st2" d="M66.3,165.2h272.3c51.2,0,93,41.6,93,92.5v14.6H226.7C126.2,272.2,66.3,259.3,66.3,165.2L66.3,165.2z"/>
	<linearGradient id="SVGID_3_" gradientUnits="userSpaceOnUse" x1="81.744" y1="332.35" x2="480.7825" y2="495.8115">
		<stop  offset="0" style="stop-color:#00B957"/>
		<stop  offset="1" style="stop-color:#00EF64"/>
	</linearGradient>
	<path class="st3" d="M223,304.8h79.9l-1,227.7c-70.2-0.4-79.7-52.2-79.3-139.1L223,304.8z"/>
	<g>
		<linearGradient id="SVGID_4_" gradientUnits="userSpaceOnUse" x1="387.3725" y1="269.431" x2="718.5594" y2="499.7096">
			<stop  offset="0" style="stop-color:#00EF64"/>
			<stop  offset="1" style="stop-color:#009657"/>
		</linearGradient>
		<path class="st4" d="M796.5,315.1c-7.3-10.1-14-20.6-20.7-31.1c-1.1-1.3-2.2-2.6-3.3-3.9c-14.5-16.9-29.8-33.2-46.3-48.1
			c-0.1,0-0.1-0.1-0.2-0.1c-1.6-0.8-3.2-1.5-4.8-2.3c-0.7-0.3-3.4-1.5-3.4-1.5c-0.7-0.3-1.5-0.6-1.7-0.7c-1.7-0.7-3.5-1.4-5.3-2
			c-7.5-2.7-14.9-5.3-22-8.9c-6.1-3.1-11.5-6.9-16.5-11.1c12.5,21,18.8,46,18.8,75.1c0,44.8-14.9,79.7-44.6,105.2
			c-29.7,25.4-71,38.1-123.6,38.1c-52.2,0-104.3,0.2-156.5,0.4v103.4c20.2,2.9,43.5,3.8,69.6,3.8c59.9,0,118.5,1.9,176.6-8.8
			c27.3-6,52.5-15.5,75.8-28.8c40.8-23.4,71.9-53,92.9-89.2c13.3-22.6,22.4-47.2,27.3-73.9C804.2,325.6,800.3,320.3,796.5,315.1z"/>
	</g>
</g>
<linearGradient id="SVGID_5_" gradientUnits="userSpaceOnUse" x1="68.0405" y1="-25.6357" x2="789.1274" y2="390.684">
	<stop  offset="0" style="stop-color:#00B957"/>
	<stop  offset="1" style="stop-color:#00EF64"/>
</linearGradient>
<path class="st5" d="M812.4,278c0.1,0.3,0.3,0.5,0.4,0.8v1.8c0,46.6-10.5,88-31.7,124c-21,36.2-52.1,65.8-92.9,89.2
	c-23.3,13.3-48.5,22.9-75.8,28.8c-14.8,2.7-29.6,4.6-44.5,6c0.9-0.5,1.8-1.1,2.6-1.6c40.9-23.4,71.9-53,92.9-89.1
	c21.2-36.1,31.7-77.6,31.7-124.1c0-22.9-2.3-44.4-7-64.4c-2-11.2-5.2-21.7-9.6-31.5c-7.4-16.5-18.1-30.7-32.3-43
	c-25.4-21.9-59.2-34.4-101.4-37.5c-7.2-0.6-14.5-0.8-22.1-0.8v-0.1L235.3,132c0,0,0-0.1,0-0.1l-144.9-1.4
	c-7.7-0.1-15.1-0.3-22.2-0.7C-0.8,126.4,2,23.4,71,23.4h33.3l129.6,1.5c0,0,0,0,0-0.1l262.4,4.7h15c94.2,0,168,22.3,221.4,67.1
	c53,44.4,79.7,105.1,80.1,182.1C812.7,278.5,812.5,278.2,812.4,278z"/>
</svg>
