<?xml version="1.0" encoding="UTF-8"?>
<svg id="Layer_1" xmlns="http://www.w3.org/2000/svg" version="1.1" xmlns:xlink="http://www.w3.org/1999/xlink" viewBox="0 0 846 613">
  <!-- Generator: Adobe Illustrator 30.3.0, SVG Export Plug-In . SVG Version: 2.1.3 Build 182)  -->
  <defs>
    <style>
      .st0 {
        fill: url(#radial-gradient1);
      }

      .st0, .st1, .st2, .st3, .st4 {
        fill-rule: evenodd;
      }

      .st5 {
        fill: url(#linear-gradient1);
      }

      .st6 {
        fill: url(#radial-gradient);
      }

      .st1 {
        fill: #b79b25;
      }

      .st2 {
        fill: #1e2826;
      }

      .st3 {
        fill: url(#linear-gradient);
      }

      .st4 {
        fill: url(#linear-gradient2);
      }
    </style>
    <radialGradient id="radial-gradient" cx="69.6" cy="296.4" fx="69.6" fy="296.4" r="179.7" gradientUnits="userSpaceOnUse">
      <stop offset="0" stop-color="#1e2826"/>
      <stop offset="1" stop-color="#263533"/>
    </radialGradient>
    <linearGradient id="linear-gradient" x1="181.5" y1="323.9" x2="416.1" y2="609.3" gradientUnits="userSpaceOnUse">
      <stop offset="0" stop-color="#fc0"/>
      <stop offset="1" stop-color="#d3b32a"/>
    </linearGradient>
    <linearGradient id="linear-gradient1" x1="504.5" y1="377.2" x2="692.1" y2="507.6" gradientUnits="userSpaceOnUse">
      <stop offset="0" stop-color="#00ef64"/>
      <stop offset="1" stop-color="#009657"/>
    </linearGradient>
    <linearGradient id="linear-gradient2" x1="471" y1="280.2" x2="763.8" y2="449.2" gradientUnits="userSpaceOnUse">
      <stop offset="0" stop-color="#00b957"/>
      <stop offset="1" stop-color="#00ef64"/>
    </linearGradient>
    <radialGradient id="radial-gradient1" cx="480.5" cy="-47.3" fx="480.5" fy="-47.3" r="331.2" gradientUnits="userSpaceOnUse">
      <stop offset="0" stop-color="#263533"/>
      <stop offset="1" stop-color="#1e2826"/>
    </radialGradient>
  </defs>
  <path class="st2" d="M88.7,188.2h272.3c51.2,0,93,41.6,93,92.5v14.6h-204.8c-100.5,0-160.5-12.9-160.5-107h0Z"/>
  <path class="st1" d="M218.3,327.8h107s-1.3,227.7-1.3,227.7c-94-.4-106.7-52.2-106.3-139.1l.5-88.6Z"/>
  <path class="st6" d="M61.4,188.2h272.3c51.2,0,93,41.6,93,92.5v14.6h-204.8c-100.5,0-160.5-12.9-160.5-107h0Z"/>
  <path class="st3" d="M218.2,327.8h79.9s-1,227.7-1,227.7c-70.2-.4-79.7-52.2-79.3-139.1l.4-88.6Z"/>
  <g>
    <path class="st5" d="M791.7,338.1c-7.3-10.1-14-20.6-20.7-31.1-1.1-1.3-2.2-2.6-3.3-3.9-14.5-16.9-29.8-33.2-46.3-48.1,0,0-.1,0-.2-.1-1.6-.8-3.2-1.5-4.8-2.3-.7-.3-3.4-1.5-3.4-1.5-.7-.3-1.5-.6-1.7-.7-1.7-.7-3.5-1.4-5.3-2-7.5-2.7-14.9-5.3-22-8.9-6.1-3.1-11.5-6.9-16.5-11.1,12.5,21,18.8,46,18.8,75.1,0,44.8-14.9,79.7-44.6,105.2-29.7,25.4-71,38.1-123.6,38.1s-104.3.2-156.5.4v103.4c20.2,2.9,43.5,3.8,69.6,3.8,59.9,0,118.5,1.9,176.6-8.8,27.3-6,52.5-15.5,75.8-28.8,40.8-23.4,71.9-53,92.9-89.2,13.3-22.6,22.4-47.2,27.3-73.9-4.2-5.1-8.1-10.4-11.9-15.6Z"/>
    <path class="st4" d="M683.4,272.4c4.6,20,7,41.5,7,64.4,0,46.5-10.5,88.1-31.7,124.1-21,36.1-52,65.7-92.9,89.1-.8.5-1.8,1-2.6,1.6,14.9-1.4,29.7-3.2,44.5-6,27.3-6,52.5-15.5,75.8-28.8,40.8-23.4,71.9-53,92.9-89.2,21.2-36.1,31.7-77.5,31.7-124v-1.8c-13.3-28.5-32.6-53.3-57.7-74.3-32.8-27.6-73.3-46.5-121.6-57.1-27.1-6-56.7-9.3-88.7-9.9,42.2,3.1,76,15.6,101.4,37.5,14.1,12.3,24.9,26.5,32.3,43,4.4,9.7,7.6,20.2,9.6,31.5h0Z"/>
  </g>
  <path class="st0" d="M808,301.8c-13.3-28.5-32.6-53.3-57.7-74.3-51.2-43-121.3-65.3-210.2-67-7.2-.6-14.6-.8-22.1-.8h0c0-.1-287.5-4.7-287.5-4.7,0,0,0,0,0,0l-145-1.4c-7.7-.1-15.1-.3-22.2-.7-69-3.4-66.2-106.4,2.9-106.4h33.3l129.6,1.5s0,0,0,0l262.4,4.7h15c94.1,0,168,22.3,221.4,67.1,53,44.4,79.7,105.2,80.1,182.1Z"/>
</svg>