<?xml version="1.0" encoding="utf-8"?>
<!-- Generator: Adobe Illustrator 24.3.0, SVG Export Plug-In . SVG Version: 6.00 Build 0)  -->
<svg version="1.1" id="Layer_1" xmlns="http://www.w3.org/2000/svg" xmlns:xlink="http://www.w3.org/1999/xlink" x="0px" y="0px"
	 viewBox="0 0 4673.6 1033.9" style="enable-background:new 0 0 4673.6 1033.9;" xml:space="preserve">
<style type="text/css">
	.st0{fill:#283533;}
	.st1{fill-rule:evenodd;clip-rule:evenodd;fill:#1E2826;}
	.st2{fill-rule:evenodd;clip-rule:evenodd;fill:#B79B25;}
	.st3{fill:url(#SVGID_1_);}
	.st4{fill-rule:evenodd;clip-rule:evenodd;fill:url(#SVGID_2_);}
	.st5{fill:url(#SVGID_3_);}
	.st6{fill-rule:evenodd;clip-rule:evenodd;fill:url(#SVGID_4_);}
	.st7{fill-rule:evenodd;clip-rule:evenodd;fill:url(#SVGID_5_);}
</style>
<path class="st0" d="M1549.4,637.2V450.4h-45.7c-33.5,0-60.6-27.1-60.6-60.6v-10.9h240.2c33.5,0,60.6,27.1,60.6,60.6v10.9h-106.8
	V715h-9.9C1584.2,715,1549.4,680.1,1549.4,637.2z"/>
<path class="st0" d="M1855.4,720.7c-26.4,0-49.3-5-68.9-15c-19.5-10-34.7-24.3-45.5-42.9c-10.8-18.6-16.2-40.4-16.2-65.5
	c0-25.4,5.4-47.3,16.2-65.5c10.8-18.3,26-32.3,45.5-42.2c19.5-9.8,42.5-14.8,68.9-14.8c15.6,0,31.1,2.2,46.7,6.7
	c15.6,4.5,28.3,10.5,38.1,18.1l-22.9,58.2c-7-5.7-15.4-10.3-25.3-13.8c-9.9-3.5-19.2-5.2-28.1-5.2c-16.5,0-29.4,5.2-38.6,15.5
	c-9.2,10.3-13.8,24.9-13.8,43.6c0,18.1,4.6,32.4,13.8,42.9c9.2,10.5,22.1,15.7,38.6,15.7c8.9,0,18.3-1.7,28.1-5
	c9.8-3.3,18.3-8,25.3-14.1l22.9,58.6c-9.9,7.3-22.6,13.3-38.1,17.9C1886.6,718.4,1871,720.7,1855.4,720.7z"/>
<path class="st0" d="M1966.5,715V378.9h84.8v142.5h-7.6c7.6-14.9,18.5-26.5,32.7-34.6c14.1-8.1,30.3-12.2,48.4-12.2
	c18.7,0,34.2,3.7,46.2,11.2c12.1,7.5,21.1,18.6,27.2,33.4c6,14.8,9.1,33.8,9.1,57V715h-84.8V579.6c0-9.5-1.1-17.2-3.3-22.9
	c-2.2-5.7-5.5-9.9-9.8-12.6c-4.3-2.7-9.6-4.1-16-4.1c-8.6,0-16.1,1.8-22.4,5.5c-6.4,3.7-11.2,8.9-14.5,15.7c-3.3,6.8-5,14.7-5,23.6
	V715H1966.5z"/>
<path class="st0" d="M2374.5,720.7c-26.1,0-48.8-4.9-68.2-14.8c-19.4-9.8-34.5-24.1-45.3-42.7c-10.8-18.6-16.2-40.4-16.2-65.5
	c0-25.4,5.4-47.3,16.2-65.8c10.8-18.4,25.9-32.6,45.3-42.4c19.4-9.8,42.1-14.8,68.2-14.8c26.4,0,49.2,4.9,68.4,14.8
	c19.2,9.9,34.2,24,44.8,42.4c10.6,18.4,16,40.4,16,65.8c0,25.1-5.3,47-16,65.5c-10.7,18.6-25.6,32.8-44.8,42.7
	C2423.7,715.8,2400.9,720.7,2374.5,720.7z M2374.5,657.3c12.7,0,23.2-4.7,31.5-14.1c8.3-9.4,12.4-24.7,12.4-46
	c0-21-4.1-36.1-12.4-45.5c-8.3-9.4-18.8-14.1-31.5-14.1c-13,0-23.7,4.7-31.9,14.1c-8.3,9.4-12.4,24.5-12.4,45.5
	c0,21.3,4.1,36.6,12.4,46C2350.9,652.6,2361.5,657.3,2374.5,657.3z"/>
<path class="st0" d="M2609.5,715l-103-234.5h89.1l59.1,153.5h-16.2l62.4-153.5h82.9L2679.1,715H2609.5z"/>
<path class="st0" d="M2875.1,720.7c-18.1,0-34.2-3.4-48.1-10.2c-14-6.8-24.9-16-32.7-27.6c-7.8-11.6-11.7-24.9-11.7-39.8
	c0-17.2,4.4-30.7,13.3-40.5c8.9-9.8,23.3-16.9,43.1-21.2c19.9-4.3,46.2-6.4,78.9-6.4h26.2v39.6H2918c-9.5,0-17.6,0.6-24.3,1.9
	c-6.7,1.3-12.2,2.9-16.7,4.8c-4.5,1.9-7.7,4.4-9.8,7.4c-2.1,3-3.1,6.8-3.1,11.2c0,7.3,2.5,13.3,7.6,18.1c5.1,4.8,12.7,7.2,22.9,7.2
	c7.6,0,14.5-1.7,20.7-5.2c6.2-3.5,11.2-8.3,15-14.5c3.8-6.2,5.7-13.4,5.7-21.7v-55.3c0-11.8-2.9-19.9-8.8-24.5
	c-5.9-4.6-15.8-6.9-29.8-6.9c-12.4,0-25.8,1.9-40.3,5.7c-14.5,3.8-28.8,9.7-43.1,17.6l-21.9-55.8c8.3-5.7,18.6-10.8,31-15.3
	c12.4-4.4,25.5-7.9,39.3-10.5c13.8-2.5,26.6-3.8,38.4-3.8c26.1,0,47.6,3.8,64.6,11.4c17,7.6,29.7,19.1,38.1,34.6
	c8.4,15.4,12.6,35.2,12.6,59.3V715H2937v-44.3h2.9c-1.6,9.9-5.2,18.5-11,26c-5.7,7.5-13.2,13.3-22.4,17.6
	C2897.3,718.5,2886.8,720.7,2875.1,720.7z"/>
<path class="st0" d="M3121,715V399.2c0-11.2,12.2-20.3,27.2-20.3h125.2c49.1,0,90.6,6.4,124.6,19.3c33.9,12.9,59.8,31.8,77.5,56.7
	c17.7,25,26.6,55.5,26.6,91.8c0,36.2-8.9,66.9-26.6,92c-17.7,25.1-43.5,44.1-77.5,57c-33.9,12.9-75.5,19.3-124.6,19.3H3121z
	 M3173.5,681.6h96.1c59.3,0,114.9-11.3,144.1-33.8c29.2-22.6,43.9-56.2,43.9-101.1c0-44.8-14.7-78.4-44.2-100.8
	c-29.5-22.4-84.9-33.6-143.8-33.6h-96.1V681.6z"/>
<path class="st0" d="M3552.7,425.6v-43.4h47.7v43.4H3552.7z M3557.4,715V483.3h38.6V715H3557.4z"/>
<path class="st0" d="M3770.5,805.1c-20,0-38.8-2.6-56.5-7.9c-17.6-5.2-33.3-13.1-47-23.6l12.9-28.1c9.5,6.7,19,12.2,28.4,16.4
	c9.4,4.3,19.1,7.4,29.1,9.3c10,1.9,20.4,2.9,31.2,2.9c22.6,0,39.6-6,51.2-18.1c11.6-12.1,17.4-29.6,17.4-52.4v-53.9h4.8
	c-4.8,18.4-14.9,33.1-30.3,43.9c-15.4,10.8-33.4,16.2-54.1,16.2c-21.3,0-39.7-4.8-55.3-14.5c-15.6-9.7-27.6-23.3-36-40.8
	c-8.4-17.5-12.6-37.7-12.6-60.5c0-22.9,4.2-43,12.6-60.3c8.4-17.3,20.4-30.7,36-40.3c15.6-9.5,34-14.3,55.3-14.3
	c21,0,39.1,5.3,54.3,16c15.3,10.7,25.1,25,29.6,43.1h-4.3v-54.8h37.7v215c0,23.5-3.9,43.2-11.7,59.1c-7.8,15.9-19.5,27.8-35,35.8
	C3812.6,801.1,3793.4,805.1,3770.5,805.1z M3764.8,678.3c22.2,0,39.9-7.6,52.9-22.9c13-15.3,19.5-35.8,19.5-61.5
	c0-25.7-6.5-46.2-19.5-61.3c-13-15.1-30.7-22.6-52.9-22.6c-21.9,0-39.4,7.6-52.4,22.6c-13,15.1-19.5,35.5-19.5,61.3
	c0,25.7,6.5,46.2,19.5,61.5C3725.4,670.6,3742.9,678.3,3764.8,678.3z"/>
<path class="st0" d="M3942.6,425.6v-43.4h47.7v43.4H3942.6z M3947.4,715V483.3h38.6V715H3947.4z"/>
<path class="st0" d="M4150.9,719.3c-27.3,0-47.8-7.3-61.5-21.9c-13.7-14.6-20.5-35.4-20.5-62.4V513.3h-45.3v-30h45.3v-71h38.6v71
	h73.4v30h-73.4v117.7c0,18.1,3.8,31.9,11.4,41.2c7.6,9.4,20,14.1,37.2,14.1c5.1,0,10.2-0.6,15.3-1.9c5.1-1.3,9.7-2.5,13.8-3.8
	l6.7,29.6c-4.1,2.2-10.2,4.3-18.1,6.2C4165.8,718.3,4158.2,719.3,4150.9,719.3z"/>
<path class="st0" d="M4297.7,719.3c-15.9,0-30.1-3.1-42.7-9.3c-12.6-6.2-22.5-14.7-29.8-25.5c-7.3-10.8-11-22.9-11-36.2
	c0-17.2,4.4-30.7,13.1-40.5c8.7-9.8,23.2-16.8,43.4-21c20.2-4.1,47.7-6.2,82.7-6.2h21.5v25.3h-21c-19.4,0-35.6,0.6-48.6,1.9
	c-13,1.3-23.4,3.5-31,6.7c-7.6,3.2-13,7.3-16.2,12.4c-3.2,5.1-4.8,11.4-4.8,19.1c0,13,4.5,23.7,13.6,31.9
	c9.1,8.3,21.4,12.4,36.9,12.4c12.7,0,23.9-3,33.6-9.1c9.7-6,17.3-14.3,22.9-24.8c5.6-10.5,8.3-22.6,8.3-36.2v-54.3
	c0-19.7-4-33.9-11.9-42.7c-7.9-8.7-21-13.1-39.1-13.1c-14,0-27.5,2-40.5,6c-13,4-26.4,10.4-40,19.3l-13.3-28.1
	c8.3-5.7,17.6-10.7,28.1-15c10.5-4.3,21.5-7.5,32.9-9.8c11.4-2.2,22.4-3.3,32.9-3.3c20,0,36.5,3.3,49.6,9.8
	c13,6.5,22.7,16.4,29.1,29.6c6.4,13.2,9.5,30.1,9.5,50.8V715h-36.2v-53.9h4.3c-2.5,12.1-7.4,22.4-14.5,31c-7.2,8.6-16,15.3-26.5,20
	C4322.5,716.9,4310.7,719.3,4297.7,719.3z"/>
<path class="st0" d="M4548.4,719.3c-23.5,0-41.2-7-53.2-21c-11.9-14-17.9-34-17.9-60.1V378.9h38.6v256.5c0,11.1,1.5,20.5,4.5,28.1
	c3,7.6,7.5,13.3,13.6,17.2c6,3.8,13.5,5.7,22.4,5.7c3.8,0,7.5-0.2,11.2-0.7c3.6-0.5,7.1-1.2,10.2-2.1l-1,32.4
	c-5.1,1-9.9,1.7-14.5,2.4C4557.9,718.9,4553.2,719.3,4548.4,719.3z"/>
<g>
	<path class="st1" d="M183.6,332.2h415.4c78.2,0,141.9,63.5,141.9,141.1v22.2H428.4C275.1,495.5,183.6,475.8,183.6,332.2
		L183.6,332.2z"/>
	<path class="st2" d="M381.4,545.3h163.3l-2,347.4C399.3,892,379.9,813,380.7,680.4L381.4,545.3z"/>
	<radialGradient id="SVGID_1_" cx="154.5653" cy="497.2497" r="274.2123" gradientUnits="userSpaceOnUse">
		<stop  offset="0" style="stop-color:#1E2826"/>
		<stop  offset="1" style="stop-color:#263533"/>
	</radialGradient>
	<path class="st3" d="M142.1,332.2h415.4c78.2,0,141.9,63.5,141.9,141.1v22.2H386.8C233.6,495.5,142.1,475.8,142.1,332.2
		L142.1,332.2z"/>
	<linearGradient id="SVGID_2_" gradientUnits="userSpaceOnUse" x1="325.2815" y1="539.1839" x2="683.1" y2="974.6684">
		<stop  offset="0" style="stop-color:#FFCC00"/>
		<stop  offset="1" style="stop-color:#D3B32A"/>
	</linearGradient>
	<path class="st4" d="M381.2,545.3h121.9l-1.5,347.4c-107.1-0.6-121.6-79.7-121-212.2L381.2,545.3z"/>
	<g>
		<linearGradient id="SVGID_3_" gradientUnits="userSpaceOnUse" x1="818.0577" y1="620.6436" x2="1104.1311" y2="819.5542">
			<stop  offset="0" style="stop-color:#00EF64"/>
			<stop  offset="1" style="stop-color:#009657"/>
		</linearGradient>
		<path class="st5" d="M1256.1,560.9c-11.1-15.4-21.4-31.4-31.6-47.4c-1.7-2-3.4-4-5.1-6c-22.1-25.7-45.4-50.6-70.7-73.3
			c-0.1-0.1-0.2-0.1-0.3-0.2c-2.4-1.2-4.9-2.4-7.4-3.5c-1-0.5-5.2-2.2-5.2-2.3c-1.1-0.5-2.3-0.9-2.7-1.1c-2.7-1-5.3-2.1-8-3
			c-11.4-4-22.8-8-33.6-13.6c-9.2-4.8-17.5-10.5-25.2-16.9c19.1,32,28.7,70.1,28.7,114.6c0,68.3-22.7,121.6-68,160.4
			c-45.4,38.7-108.2,58.1-188.5,58.1c-79.6,0-159.2,0.4-238.8,0.7v157.8c30.9,4.5,66.4,5.8,106.1,5.8c91.4,0,180.8,2.9,269.4-13.4
			c41.7-9.1,80.1-23.7,115.6-44c62.2-35.7,109.7-80.9,141.7-136.1c20.2-34.4,34.1-72.1,41.6-112.8
			C1267.8,576.9,1261.9,568.8,1256.1,560.9z"/>
		<linearGradient id="SVGID_4_" gradientUnits="userSpaceOnUse" x1="766.8823" y1="472.5508" x2="1213.557" y2="730.4386">
			<stop  offset="0" style="stop-color:#00B957"/>
			<stop  offset="1" style="stop-color:#00EF64"/>
		</linearGradient>
		<path class="st6" d="M1090.9,460.8c7.1,30.5,10.6,63.3,10.6,98.2c0,71-16.1,134.3-48.4,189.4c-32,55-79.3,100.3-141.7,135.9
			c-1.3,0.8-2.7,1.6-4,2.4c22.7-2.1,45.4-5,67.9-9.1c41.7-9.1,80.1-23.7,115.6-44c62.2-35.7,109.7-80.9,141.7-136.1
			c32.3-55,48.4-118.2,48.4-189.2c0-1,0-1.9,0-2.7c-20.3-43.5-49.7-81.2-88-113.4c-50-42.1-111.8-71-185.4-87.2
			c-41.3-9.1-86.5-14.2-135.3-15c64.3,4.8,116,23.8,154.7,57.3c21.6,18.7,38,40.5,49.2,65.6C1083,427.6,1087.8,443.6,1090.9,460.8
			L1090.9,460.8z"/>
	</g>
	<radialGradient id="SVGID_5_" cx="781.441" cy="-26.9959" r="505.2405" gradientUnits="userSpaceOnUse">
		<stop  offset="0" style="stop-color:#263533"/>
		<stop  offset="1" style="stop-color:#1E2826"/>
	</radialGradient>
	<path class="st7" d="M1281,505.5c-20.3-43.5-49.7-81.2-88-113.4c-78.2-65.6-185.1-99.6-320.7-102.2c-10.9-1-22.2-1.3-33.8-1.3v-0.2
		L400,281.6c0,0,0-0.1,0-0.1l-221.1-2.2c-11.7-0.2-23-0.5-33.9-1C39.7,273,44,115.9,149.4,115.9h50.8l197.7,2.3c0,0,0-0.1,0-0.1
		l400.3,7.2H821c143.6,0,256.4,34.1,337.7,102.4C1239.7,295.5,1280.4,388.1,1281,505.5z"/>
</g>
</svg>
