<?xml version="1.0" encoding="UTF-8"?>
<svg id="Layer_1" xmlns="http://www.w3.org/2000/svg" version="1.1" xmlns:xlink="http://www.w3.org/1999/xlink" viewBox="0 0 824 547">
  <!-- Generator: Adobe Illustrator 30.3.0, SVG Export Plug-In . SVG Version: 2.1.3 Build 182)  -->
  <defs>
    <style>
      .st0 {
        fill: url(#linear-gradient5);
      }

      .st0, .st1, .st2, .st3, .st4 {
        fill-rule: evenodd;
      }

      .st1 {
        fill: url(#linear-gradient1);
      }

      .st5 {
        fill: url(#linear-gradient4);
      }

      .st2 {
        fill: url(#linear-gradient3);
      }

      .st3 {
        fill: url(#linear-gradient);
      }

      .st4 {
        fill: url(#linear-gradient2);
      }
    </style>
    <linearGradient id="linear-gradient" x1="97.8" y1="212.7" x2="439.6" y2="212.7" gradientUnits="userSpaceOnUse">
      <stop offset="0" stop-color="#132422"/>
      <stop offset="1" stop-color="#1e2626"/>
    </linearGradient>
    <linearGradient id="linear-gradient1" x1="218.6" y1="399.8" x2="319.2" y2="399.8" xlink:href="#linear-gradient"/>
    <linearGradient id="linear-gradient2" x1="72.3" y1="212.7" x2="414.1" y2="212.7" gradientUnits="userSpaceOnUse">
      <stop offset="0" stop-color="#1e2826"/>
      <stop offset="1" stop-color="#263533"/>
    </linearGradient>
    <linearGradient id="linear-gradient3" x1="219" y1="399.8" x2="293.8" y2="399.8" xlink:href="#linear-gradient2"/>
    <linearGradient id="linear-gradient4" x1="423" y1="304.3" x2="676.5" y2="480.7" xlink:href="#linear-gradient"/>
    <linearGradient id="linear-gradient5" x1="27" y1="266.3" x2="770.8" y2="266.3" xlink:href="#linear-gradient2"/>
  </defs>
  <g>
    <path class="st3" d="M97.8,162.6h254.8c47.9,0,87,38.9,87,86.5v13.6h-191.6c-94,0-150.1-12.1-150.1-100.1h0Z"/>
    <path class="st1" d="M219.1,293.3h100.1s-1.2,213-1.2,213c-88-.4-99.9-48.9-99.4-130.1l.5-82.9Z"/>
    <path class="st4" d="M72.3,162.6h254.8c47.9,0,87,38.9,87,86.5v13.6h-191.6c-94,0-150.1-12.1-150.1-100.1h0Z"/>
    <path class="st2" d="M219.4,293.3h74.4s-.9,213-.9,213c-65.4-.4-74.2-48.9-73.9-130.1l.3-82.9Z"/>
  </g>
  <path class="st5" d="M755,352.4c-.9-2.2-1.8-4.4-2.7-6.6,3.1,7.4,0-.2-.9-2-6.5-15-13.7-29.7-21.9-43.8-4.1-7.1-8.5-14.1-13.1-20.9-2.2-3.2-4.5-6.3-6.8-9.4-.9-1.1-1.4-1.7-1.6-2-1-1.2-2-2.5-3-3.7-5.1-6.1-10.6-12-16.3-17.6-3-2.9-6-5.7-9.2-8.5-1.6-1.4-3.2-2.7-4.8-4.1-.6-.5-4.6-3.6-3.4-2.7-.2-.1-.4-.3-.5-.3-.8-.6-1.5-1.1-2.3-1.7-1.7-1.3-3.5-2.5-5.3-3.7-3.2-2.2-6.5-4.3-9.8-6.3-2.3-1.4-4.6-2.7-6.9-4,6.8,16.3,10.2,34.7,10.2,55.4,0,41.9-13.9,74.5-41.7,98.4-27.8,23.7-66.4,35.6-115.6,35.6s-97.6.2-146.4.4v96.8c18.9,2.7,40.7,3.6,65.1,3.6,56,0,110.9,1.8,165.2-8.2,25.5-5.6,49.1-14.5,70.9-27,38.2-21.9,67.3-49.6,86.9-83.5,5.9-10,10.9-20.5,15-31.5-.4-.9-.7-1.8-1.1-2.7Z"/>
  <path class="st0" d="M770.8,268.9v1.7c0,43.6-9.9,82.3-29.7,116-19.6,33.8-48.7,61.6-86.9,83.5-21.8,12.5-45.4,21.4-70.9,27-13.8,2.5-27.7,4.3-41.6,5.6.8-.5,1.7-1,2.5-1.5,38.3-21.9,67.3-49.6,86.9-83.4,19.8-33.7,29.7-72.6,29.7-116.1s-2.2-41.5-6.5-60.2c-1.9-10.5-4.8-20.3-9-29.4-6.9-15.4-17-28.7-30.2-40.2-23.8-20.5-55.4-32.2-94.9-35.1.3,0,.7,0,1.1,0-.4,0-.7,0-1.1,0-6.7-.6-13.6-.8-20.7-.8h0c0,0-269-4.3-269-4.3,0,0,0,0,0,0l-135.6-1.3c-7.2-.1-14.1-.3-20.8-.6-64.5-3.2-61.9-99.5,2.7-99.5h31.1l121.3,1.4s0,0,0,0l245.5,4.4h14c88.1,0,157.2,20.9,207.1,62.8,49.6,41.6,74.6,98.4,75,170.4Z"/>
</svg>