<?xml version="1.0" encoding="UTF-8"?>
<svg id="Layer_1" xmlns="http://www.w3.org/2000/svg" version="1.1" viewBox="0 0 816 613">
  <!-- Generator: Adobe Illustrator 30.3.0, SVG Export Plug-In . SVG Version: 2.1.3 Build 182)  -->
  <defs>
    <style>
      .st0 {
        fill: #283533;
      }
    </style>
  </defs>
  <path class="st0" d="M108.4,245.2v-85.5h-20.9c-15.3,0-27.7-12.4-27.7-27.7v-5s110,0,110,0c15.3,0,27.7,12.4,27.7,27.7v5h-48.9v121.1h-4.5c-19.7,0-35.6-15.9-35.6-35.6Z"/>
  <path class="st0" d="M248.5,283.5c-12.1,0-22.6-2.3-31.5-6.9-8.9-4.6-15.9-11.1-20.8-19.6-4.9-8.5-7.4-18.5-7.4-30s2.5-21.6,7.4-30c4.9-8.4,11.9-14.8,20.8-19.3,8.9-4.5,19.5-6.8,31.5-6.8s14.3,1,21.4,3.1c7.1,2,12.9,4.8,17.5,8.3l-10.5,26.6c-3.2-2.6-7.1-4.7-11.6-6.3-4.5-1.6-8.8-2.4-12.9-2.4-7.6,0-13.5,2.4-17.7,7.1-4.2,4.7-6.3,11.4-6.3,20s2.1,14.8,6.3,19.6c4.2,4.8,10.1,7.2,17.7,7.2s8.4-.8,12.9-2.3c4.5-1.5,8.4-3.7,11.6-6.4l10.5,26.8c-4.5,3.3-10.3,6.1-17.5,8.2-7.1,2.1-14.3,3.2-21.4,3.2Z"/>
  <path class="st0" d="M299.4,280.8V127h38.9v65.3h-3.5c3.5-6.8,8.5-12.1,15-15.8,6.5-3.7,13.9-5.6,22.2-5.6s15.6,1.7,21.2,5.1c5.5,3.4,9.7,8.5,12.4,15.3,2.8,6.8,4.1,15.5,4.1,26.1v63.5h-38.9v-62c0-4.4-.5-7.9-1.5-10.5-1-2.6-2.5-4.5-4.5-5.8-2-1.2-4.4-1.9-7.3-1.9s-7.3.8-10.3,2.5c-2.9,1.7-5.1,4.1-6.7,7.2-1.5,3.1-2.3,6.7-2.3,10.8v59.6h-38.9Z"/>
  <path class="st0" d="M486.2,283.5c-11.9,0-22.3-2.3-31.2-6.8-8.9-4.5-15.8-11-20.7-19.5-4.9-8.5-7.4-18.5-7.4-30s2.5-21.7,7.4-30.1c4.9-8.4,11.9-14.9,20.7-19.4,8.9-4.5,19.3-6.8,31.2-6.8s22.5,2.3,31.3,6.8c8.8,4.5,15.6,11,20.5,19.4,4.9,8.4,7.3,18.5,7.3,30.1s-2.4,21.5-7.3,30c-4.9,8.5-11.7,15-20.5,19.5-8.8,4.5-19.2,6.8-31.3,6.8ZM486.2,254.4c5.8,0,10.6-2.1,14.4-6.4,3.8-4.3,5.7-11.3,5.7-21.1s-1.9-16.6-5.7-20.8c-3.8-4.3-8.6-6.4-14.4-6.4s-10.8,2.1-14.6,6.4c-3.8,4.3-5.7,11.2-5.7,20.8s1.9,16.8,5.7,21.1c3.8,4.3,8.7,6.4,14.6,6.4Z"/>
  <path class="st0" d="M593.8,280.8l-47.1-107.4h40.8l27.1,70.3h-7.4l28.6-70.3h38l-48,107.4h-31.9Z"/>
  <path class="st0" d="M715.4,283.5c-8.3,0-15.6-1.6-22-4.7-6.4-3.1-11.4-7.3-15-12.7-3.6-5.3-5.3-11.4-5.3-18.2s2-14,6.1-18.6c4.1-4.5,10.7-7.7,19.8-9.7,9.1-2,21.1-2.9,36.1-2.9h12v18.1h-12c-4.4,0-8.1.3-11.1.9-3.1.6-5.6,1.3-7.6,2.2-2,.9-3.5,2-4.5,3.4-.9,1.4-1.4,3.1-1.4,5.1,0,3.3,1.2,6.1,3.5,8.3,2.3,2.2,5.8,3.3,10.5,3.3s6.7-.8,9.5-2.4c2.8-1.6,5.1-3.8,6.9-6.7,1.7-2.8,2.6-6.1,2.6-9.9v-25.3c0-5.4-1.3-9.1-4-11.2-2.7-2.1-7.2-3.2-13.6-3.2s-11.8.9-18.4,2.6c-6.6,1.7-13.2,4.4-19.8,8.1l-10-25.5c3.8-2.6,8.5-4.9,14.2-7,5.7-2,11.7-3.6,18-4.8,6.3-1.2,12.2-1.7,17.6-1.7,11.9,0,21.8,1.7,29.6,5.2,7.8,3.5,13.6,8.8,17.5,15.8,3.9,7.1,5.8,16.1,5.8,27.2v61.8h-36.2v-20.3h1.3c-.7,4.5-2.4,8.5-5,11.9-2.6,3.4-6,6.1-10.3,8.1-4.2,2-9,2.9-14.4,2.9Z"/>
  <path class="st0" d="M60.3,476.9v-144.6c0-5.1,5.6-9.3,12.5-9.3h57.3c22.5,0,41.5,2.9,57,8.8,15.5,5.9,27.4,14.6,35.5,26,8.1,11.4,12.2,25.4,12.2,42s-4.1,30.6-12.2,42.1c-8.1,11.5-19.9,20.2-35.5,26.1-15.5,5.9-34.6,8.8-57,8.8H60.3ZM84.4,461.6h44c27.2,0,52.6-5.2,66-15.5,13.4-10.3,20.1-25.8,20.1-46.3s-6.7-35.9-20.2-46.2c-13.5-10.3-38.9-15.4-65.9-15.4h-44v123.3Z"/>
  <path class="st0" d="M258,344.4v-19.9h21.8v19.9h-21.8ZM260.2,476.9v-106.1h17.7v106.1h-17.7Z"/>
  <path class="st0" d="M357.7,518.2c-9.2,0-17.8-1.2-25.9-3.6-8.1-2.4-15.2-6-21.5-10.8l5.9-12.9c4.4,3.1,8.7,5.6,13,7.5,4.3,2,8.7,3.4,13.3,4.3,4.6.9,9.3,1.3,14.3,1.3,10.3,0,18.1-2.8,23.5-8.3,5.3-5.5,8-13.5,8-24v-24.7h2.2c-2.2,8.4-6.8,15.1-13.9,20.1-7.1,4.9-15.3,7.4-24.8,7.4s-18.2-2.2-25.3-6.7c-7.1-4.4-12.6-10.7-16.5-18.7-3.9-8-5.8-17.2-5.8-27.7s1.9-19.7,5.8-27.6c3.9-7.9,9.3-14.1,16.5-18.4,7.1-4.4,15.6-6.5,25.3-6.5s17.9,2.4,24.9,7.3c7,4.9,11.5,11.5,13.5,19.8h-2v-25.1h17.2v98.4c0,10.8-1.8,19.8-5.3,27.1-3.6,7.3-8.9,12.7-16,16.4-7.1,3.6-15.9,5.5-26.4,5.5ZM355.1,460.1c10.2,0,18.3-3.5,24.2-10.5,6-7,8.9-16.4,8.9-28.2s-3-21.1-8.9-28c-6-6.9-14-10.4-24.2-10.4s-18,3.5-24,10.4c-6,6.9-8.9,16.3-8.9,28s3,21.2,8.9,28.2c6,7,14,10.5,24,10.5Z"/>
  <path class="st0" d="M436.5,344.4v-19.9h21.8v19.9h-21.8ZM438.7,476.9v-106.1h17.7v106.1h-17.7Z"/>
  <path class="st0" d="M531.9,478.9c-12.5,0-21.9-3.3-28.2-10-6.3-6.7-9.4-16.2-9.4-28.6v-55.7h-20.7v-13.8h20.7v-32.5h17.7v32.5h33.6v13.8h-33.6v53.9c0,8.3,1.7,14.6,5.2,18.9,3.5,4.3,9.2,6.4,17,6.4s4.7-.3,7-.9c2.3-.6,4.4-1.2,6.3-1.7l3.1,13.5c-1.9,1-4.7,2-8.3,2.8-3.6.9-7.1,1.3-10.5,1.3Z"/>
  <path class="st0" d="M599.1,478.9c-7.3,0-13.8-1.4-19.5-4.3-5.7-2.8-10.3-6.7-13.6-11.7-3.3-4.9-5-10.5-5-16.6s2-14,6-18.6c4-4.5,10.6-7.7,19.9-9.6,9.2-1.9,21.9-2.8,37.9-2.8h9.8v11.6h-9.6c-8.9,0-16.3.3-22.3.9-6,.6-10.7,1.6-14.2,3.1-3.5,1.5-6,3.3-7.4,5.7-1.5,2.3-2.2,5.2-2.2,8.7,0,6,2.1,10.8,6.2,14.6,4.1,3.8,9.8,5.7,16.9,5.7s10.9-1.4,15.4-4.1c4.4-2.8,7.9-6.5,10.5-11.3,2.5-4.8,3.8-10.3,3.8-16.6v-24.9c0-9-1.8-15.5-5.5-19.5-3.6-4-9.6-6-17.9-6s-12.6.9-18.6,2.7c-6,1.8-12.1,4.8-18.3,8.8l-6.1-12.9c3.8-2.6,8.1-4.9,12.9-6.9,4.8-2,9.8-3.5,15.1-4.5,5.2-1,10.3-1.5,15.1-1.5,9.2,0,16.7,1.5,22.7,4.5,6,3,10.4,7.5,13.3,13.5,2.9,6,4.4,13.8,4.4,23.2v66.8h-16.6v-24.7h2c-1.2,5.5-3.4,10.3-6.7,14.2-3.3,3.9-7.3,7-12.1,9.2-4.8,2.2-10.2,3.3-16.2,3.3Z"/>
  <path class="st0" d="M713.9,478.9c-10.8,0-18.9-3.2-24.3-9.6-5.5-6.4-8.2-15.6-8.2-27.5v-118.7h17.7v117.4c0,5.1.7,9.4,2.1,12.9,1.4,3.5,3.5,6.1,6.2,7.9,2.8,1.7,6.2,2.6,10.3,2.6s3.5-.1,5.1-.3c1.7-.2,3.2-.5,4.7-1l-.4,14.8c-2.3.4-4.5.8-6.7,1.1-2.1.3-4.3.4-6.4.4Z"/>
</svg>